<svg xmlns="http://www.w3.org/2000/svg" viewBox="0 0 128 128" width="128" height="128"><defs><radialGradient id="aura" cx="50%" cy="50%" r="50%"><stop offset="0%" stop-color="hsl(215,80%,72%)" stop-opacity="0.13"/><stop offset="100%" stop-color="hsl(215,80%,72%)" stop-opacity="0"/></radialGradient><filter id="coreGlow" x="-80%" y="-80%" width="260%" height="260%"><feGaussianBlur stdDeviation="3.33"/></filter></defs><circle cx="64" cy="64" r="65.28" fill="url(#aura)"/><g transform="translate(64,64) rotate(83.51) scale(0.96)"><g transform="rotate(0)"><path d="M0,0 C13,11.87 6.5,28.82 0,33.91 C-6.5,28.82 -13,11.87 0,0" fill="hsla(220.46,72%,58%,0.3)" stroke="hsla(215,85%,80%,0.35)" stroke-width="0.8"/></g><g transform="rotate(37.84)"><path d="M0,0 C10.41,14.92 5.21,36.24 0,42.64 C-5.21,36.24 -10.41,14.92 0,0" fill="hsla(212.09,72%,58%,0.3)" stroke="hsla(215,85%,80%,0.35)" stroke-width="0.8"/></g><g transform="rotate(64.14)"><path d="M0,0 C7,9.88 3.5,23.98 0,28.22 C-3.5,23.98 -7,9.88 0,0" fill="hsla(206.14,72%,58%,0.3)" stroke="hsla(215,85%,80%,0.35)" stroke-width="0.8"/></g><g transform="rotate(93.41)"><path d="M0,0 C10.61,9.84 5.31,23.89 0,28.11 C-5.31,23.89 -10.61,9.84 0,0" fill="hsla(222.1,72%,58%,0.3)" stroke="hsla(215,85%,80%,0.35)" stroke-width="0.8"/><path d="M0,28.11 Q6.37,33.17 0,37.11" fill="none" stroke="hsla(215,90%,85%,0.3)" stroke-width="0.7"/><circle cx="0" cy="37.11" r="1.6" fill="hsla(215,95%,88%,0.5)"/></g><g transform="rotate(133.46)"><path d="M0,0 C8.72,14.48 4.36,35.15 0,41.36 C-4.36,35.15 -8.72,14.48 0,0" fill="hsla(213.78,72%,58%,0.3)" stroke="hsla(215,85%,80%,0.35)" stroke-width="0.8"/><path d="M0,41.36 Q5.23,48.8 0,54.59" fill="none" stroke="hsla(215,90%,85%,0.3)" stroke-width="0.7"/><circle cx="0" cy="54.59" r="1.6" fill="hsla(215,95%,88%,0.5)"/></g><g transform="rotate(167.75)"><path d="M0,0 C10.37,12.16 5.19,29.52 0,34.73 C-5.19,29.52 -10.37,12.16 0,0" fill="hsla(205.32,72%,58%,0.3)" stroke="hsla(215,85%,80%,0.35)" stroke-width="0.8"/><path d="M0,34.73 Q6.22,40.98 0,45.85" fill="none" stroke="hsla(215,90%,85%,0.3)" stroke-width="0.7"/><circle cx="0" cy="45.85" r="1.6" fill="hsla(215,95%,88%,0.5)"/></g><g transform="rotate(192.75)"><path d="M0,0 C12.88,11.55 6.44,28.05 0,33 C-6.44,28.05 -12.88,11.55 0,0" fill="hsla(219.39,72%,58%,0.3)" stroke="hsla(215,85%,80%,0.35)" stroke-width="0.8"/><path d="M0,33 Q7.73,38.94 0,43.56" fill="none" stroke="hsla(215,90%,85%,0.3)" stroke-width="0.7"/><circle cx="0" cy="43.56" r="1.6" fill="hsla(215,95%,88%,0.5)"/></g><g transform="rotate(225.9)"><path d="M0,0 C12.83,12.07 6.42,29.3 0,34.47 C-6.42,29.3 -12.83,12.07 0,0" fill="hsla(220.61,72%,58%,0.3)" stroke="hsla(215,85%,80%,0.35)" stroke-width="0.8"/><path d="M0,34.47 Q7.7,40.68 0,45.5" fill="none" stroke="hsla(215,90%,85%,0.3)" stroke-width="0.7"/><circle cx="0" cy="45.5" r="1.6" fill="hsla(215,95%,88%,0.5)"/></g><g transform="rotate(266.25)"><path d="M0,0 C11.8,13.55 5.9,32.91 0,38.71 C-5.9,32.91 -11.8,13.55 0,0" fill="hsla(217.59,72%,58%,0.3)" stroke="hsla(215,85%,80%,0.35)" stroke-width="0.8"/></g><g transform="rotate(296.59)"><path d="M0,0 C12.84,12.01 6.42,29.17 0,34.32 C-6.42,29.17 -12.84,12.01 0,0" fill="hsla(224.68,72%,58%,0.3)" stroke="hsla(215,85%,80%,0.35)" stroke-width="0.8"/><path d="M0,34.32 Q7.7,40.49 0,45.3" fill="none" stroke="hsla(215,90%,85%,0.3)" stroke-width="0.7"/><circle cx="0" cy="45.3" r="1.6" fill="hsla(215,95%,88%,0.5)"/></g><g transform="rotate(322.32)"><path d="M0,0 C8.02,9.9 4.01,24.04 0,28.28 C-4.01,24.04 -8.02,9.9 0,0" fill="hsla(226.93,72%,58%,0.3)" stroke="hsla(215,85%,80%,0.35)" stroke-width="0.8"/><path d="M0,28.28 Q4.81,33.37 0,37.33" fill="none" stroke="hsla(215,90%,85%,0.3)" stroke-width="0.7"/><circle cx="0" cy="37.33" r="1.6" fill="hsla(215,95%,88%,0.5)"/></g><circle cx="0" cy="0" r="16.71" fill="hsla(215,95%,75%,0.9)" filter="url(#coreGlow)" opacity="0.7"/><circle cx="0" cy="0" r="6.96" fill="hsla(215,95%,80%,0.95)"/></g></svg>